<?xml version="1.0" encoding="utf-8"?>
<!-- Generator: Adobe Illustrator 19.2.1, SVG Export Plug-In . SVG Version: 6.00 Build 0)  -->
<svg version="1.1" id="Lag_1" xmlns="http://www.w3.org/2000/svg" xmlns:xlink="http://www.w3.org/1999/xlink" x="0px" y="0px"
	 viewBox="0 0 512 512" style="enable-background:new 0 0 512 512;" xml:space="preserve">
<style type="text/css">
	.st0{fill:#0089E0;}
	.st1{fill:#FFFFFF;}
	.st2{font-family:'WorkSans-Regular';}
	.st3{font-size:90.75px;}
</style>
<path d="M256,8C119,8,8,119,8,256s111,248,248,248s248-111,248-248S393,8,256,8z M256,40c119.3,0,216,96.7,216,216
	c0,41.3-11.6,79.9-31.7,112.7c-12.6-27.8-38.1-43.6-57-49l-32.8-9.4c21.6-23.6,33.5-54.1,33.5-86.3c0-70.7-57.2-128-128-128
	c-70.7,0-128,57.2-128,128c0,32.2,11.8,62.7,33.5,86.3l-32.8,9.4c-18.5,5.3-44.3,21-57,49C51.6,335.8,40,297.3,40,256
	C40,136.7,136.7,40,256,40z M256,320c-53,0-96-43-96-96s43-96,96-96s96,43,96,96S309,320,256,320z M256,472
	c-63.4,0-120.3-27.3-159.8-70.7c1.7-23.8,18.1-44.2,41.3-50.8l54.5-15.6C211.2,346,233.1,352,256,352s44.8-6,64.1-17.1l54.5,15.6
	c23.2,6.6,39.6,27.1,41.3,50.8C376.3,444.7,319.4,472,256,472z"/>
<g>
	<path class="st0" d="M493.9,146.7H306.7c-10.6,0-19.1-8.6-19.1-19.1V52.1c0-10.6,8.6-19.1,19.1-19.1h187.2
		c10.6,0,19.1,8.6,19.1,19.1v75.4C513,138.1,504.4,146.7,493.9,146.7z"/>
	<text transform="matrix(1 0 0 1 308.7359 119.4169)" class="st1 st2 st3">PRO</text>
</g>
</svg>
