<?xml version="1.0" encoding="utf-8"?>
<!-- Generator: Adobe Illustrator 19.2.1, SVG Export Plug-In . SVG Version: 6.00 Build 0)  -->
<svg version="1.1" id="Lag_1" xmlns="http://www.w3.org/2000/svg" xmlns:xlink="http://www.w3.org/1999/xlink" x="0px" y="0px"
	 viewBox="0 0 512 512" style="enable-background:new 0 0 512 512;" xml:space="preserve">
<style type="text/css">
	.st0{fill:#0089E0;}
	.st1{fill:#FFFFFF;}
	.st2{font-family:'WorkSans-Regular';}
	.st3{font-size:90.75px;}
</style>
<path d="M430.8,312.7l-48.7-13.9C427.8,251.8,432,197.6,432,176C432,78.8,353.3,0,256,0C158.9,0,80,78.7,80,176
	c0,21.6,4.2,75.8,49.9,122.8l-48.7,13.9C19.5,330.3,0,386.4,0,420.3V448c0,35.3,28.7,64,64,64h384c35.3,0,64-28.7,64-64v-27.7
	C512,387.1,493,330.4,430.8,312.7L430.8,312.7z M256,32c79.5,0,144,64.5,144,144s-64.5,144-144,144s-144-64.5-144-144
	S176.5,32,256,32z M480,448c0,17.7-14.3,32-32,32H64c-17.7,0-32-14.3-32-32v-27.7c0-35.7,23.7-67.1,58-76.9l69.9-20
	C177,334.6,210.1,352,256,352c45.9,0,79-17.4,96.1-28.5l69.9,20c34.3,9.8,58,41.2,58,76.9V448z"/>
<g>
	<path class="st0" d="M493.9,146.7H306.7c-10.6,0-19.1-8.6-19.1-19.1V52.1c0-10.6,8.6-19.1,19.1-19.1h187.2
		c10.6,0,19.1,8.6,19.1,19.1v75.4C513,138.1,504.4,146.7,493.9,146.7z"/>
	<text transform="matrix(1 0 0 1 308.7359 119.4169)" class="st1 st2 st3">PRO</text>
</g>
</svg>
